<?xml version="1.0" standalone="no"?><!DOCTYPE svg PUBLIC "-//W3C//DTD SVG 1.1//EN" "http://www.w3.org/Graphics/SVG/1.1/DTD/svg11.dtd"><svg t="1524832654662" class="icon" style="" viewBox="0 0 1024 1024" version="1.1" xmlns="http://www.w3.org/2000/svg" p-id="4319" xmlns:xlink="http://www.w3.org/1999/xlink" width="32" height="32"><defs><style type="text/css"></style></defs><path d="M460.1856 12.71808c-55.61344 5.65248-117.3504 23.56224-169.18528 49.24416-102.26688 50.65728-178.3808 126.53568-228.80256 228.80256-121.82528 245.53472-22.14912 544.09216 222.91456 668.50816 247.18336 125.5936 548.5568 26.85952 674.1504-220.55936 98.49856-193.6896 61.0304-427.91936-92.60032-581.31456C760.39168 50.8928 610.51904-2.36544 460.1856 12.71808z m302.56128 320c-3.76832 3.5328-248.832 155.76064-250.71616 155.76064S264.84736 336.25088 261.31456 332.71808c-1.41312-1.1776 103.20896-2.11968 250.71616-2.11968 146.3296-0.01024 252.12928 0.93184 250.71616 2.11968zM358.38976 465.37728c76.82048 47.83104 142.7968 87.88992 146.80064 89.06752 4.94592 1.41312 10.1376 1.1776 16.0256-0.94208 4.7104-1.64864 71.6288-42.41408 148.6848-90.48064 77.056-48.30208 140.91264-86.71232 141.85472-85.77024 1.1776 1.1776 1.64864 69.74464 1.41312 152.69888-0.70656 150.33344-0.70656 150.56896-5.888 160.23552-7.0656 13.18912-22.14912 25.68192-34.87744 28.9792-7.30112 1.88416-86.00576 2.59072-261.07904 2.59072-285.35808 0-267.2128 1.1776-285.12256-18.85184-7.77216-8.71424-11.3152-15.08352-13.19936-23.79776-2.82624-12.72832-3.76832-299.49952-1.1776-302.09024 1.88416-1.88416-15.77984-12.72832 146.56512 88.36096z" p-id="4320"></path></svg>