<?xml version="1.0" standalone="no"?><!DOCTYPE svg PUBLIC "-//W3C//DTD SVG 1.1//EN" "http://www.w3.org/Graphics/SVG/1.1/DTD/svg11.dtd"><svg t="1524832747308" class="icon" style="" viewBox="0 0 1024 1024" version="1.1" xmlns="http://www.w3.org/2000/svg" p-id="5696" xmlns:xlink="http://www.w3.org/1999/xlink" width="32" height="32"><defs><style type="text/css"></style></defs><path d="M468.667 632.306a238.99 238.99 0 0 1-37.307 2.91c-25.423 0-49.77-3.978-72.255-11.253-11.307-3.659-52.624 39.61-62.89 34.37-6.115-3.121 18.453-54.27 12.764-57.905-50.774-32.437-83.699-84.545-83.699-143.3 0-98.355 92.265-178.088 206.08-178.088 107.318 0 195.476 70.89 205.191 161.438 90.273 3.531 162.169 65.999 162.169 142.541 0 47.535-27.727 89.64-70.364 115.574-8.03 4.885 17.387 46.069 8.385 49.734-5.549 2.259-45.243-32.6-51.108-30.849-17.864 5.336-37.104 8.241-57.153 8.241-73.355 0-135.873-38.89-159.813-93.413z m-9.422-33.692a203.635 203.635 0 0 1-27.885 1.906c-23.766 0-46.394-4.085-66.942-11.465-2.05-0.736-9.358-2.941-13.312 0-8.888 6.612-20.806 20.337-20.806 20.337s4.363-9.993 5.825-24.587c0.669-6.668-9.508-11.344-11.54-12.717-38.704-26.18-63.465-69.43-63.465-114.388 0-78.877 76.219-142.82 170.24-142.82 87.787 0 160.055 55.745 169.252 127.343-80.764 11.147-142.372 69.941-142.372 140.796 0 5.27 0.34 10.473 1.005 15.595zM512 960c247.424 0 448-200.576 448-448S759.424 64 512 64 64 264.576 64 512s200.576 448 448 448zM359.68 422.4c14.845 0 26.88-12.035 26.88-26.88 0-14.845-12.035-26.88-26.88-26.88-14.845 0-26.88 12.035-26.88 26.88 0 14.845 12.035 26.88 26.88 26.88z m143.36 0c14.845 0 26.88-12.035 26.88-26.88 0-14.845-12.035-26.88-26.88-26.88-14.845 0-26.88 12.035-26.88 26.88 0 14.845 12.035 26.88 26.88 26.88z m62.72 125.44c9.897 0 17.92-8.023 17.92-17.92 0-9.897-8.023-17.92-17.92-17.92-9.897 0-17.92 8.023-17.92 17.92 0 9.897 8.023 17.92 17.92 17.92z m107.52 0c9.897 0 17.92-8.023 17.92-17.92 0-9.897-8.023-17.92-17.92-17.92-9.897 0-17.92 8.023-17.92 17.92 0 9.897 8.023 17.92 17.92 17.92z" fill="#000000" p-id="5697"></path></svg>