<?xml version="1.0" standalone="no"?><!DOCTYPE svg PUBLIC "-//W3C//DTD SVG 1.1//EN" "http://www.w3.org/Graphics/SVG/1.1/DTD/svg11.dtd"><svg t="1524832722385" class="icon" style="" viewBox="0 0 1024 1024" version="1.1" xmlns="http://www.w3.org/2000/svg" p-id="5007" xmlns:xlink="http://www.w3.org/1999/xlink" width="32" height="32"><defs><style type="text/css"></style></defs><path d="M456.2 483.4c-98.1 13.8-170.3 76.6-161.4 140.2 8.9 63.7 95.7 104.1 193.8 90.3 98.1-13.8 170.3-76.6 161.4-140.2-8.9-63.6-95.7-104.1-193.8-90.3z m15 208.3c-58.3 11.3-113.3-18.8-122.7-67.4-9.4-48.5 30.2-97.1 88.5-108.4s113.3 18.8 122.7 67.4c9.4 48.5-30.2 97-88.5 108.4z" fill="#000000" p-id="5008"></path><path d="M440.1 565.9a17.9 17.9 0 1 0 35.8 0 17.9 17.9 0 1 0-35.8 0Z" fill="#000000" p-id="5009"></path><path d="M512 64C264.6 64 64 264.6 64 512s200.6 448 448 448 448-200.6 448-448S759.4 64 512 64z m-45.1 681C313.4 745 189 664.8 189 565.9s186.4-255.1 257.6-255.1c29.9 0 88.6 22.3 47.5 92.8-2.9 4.9 92.6-41 144.7-10.8 52.2 30.2 0 78.7 0 84.1 0 5.4 104.8 5.4 104.8 88.9 0.1 99-123.2 179.2-276.7 179.2z m218.4-366.2c-17.3-20.5-48.1-15.7-48.1-15.7-9 0.1-16.4-6.1-17.7-14.7-0.1 0.9-0.2 1.8-0.2 2.7v-5.3c0 0.9 0.1 1.8 0.2 2.6 1.3-8.8 8.6-16.4 17.5-17.6 0 0 37.5-10.2 69.9 18.9C739.3 378.8 726 427 726 427c-1.4 9.8-11 17.7-20.9 17.7h-2c-9.9 0-15.7-7.7-13-17.2 0.2-0.1 12.5-28.2-4.8-48.7z m122.9 61.8c-1.3 13.7-13.2 25-26.8 26.5 1 0.1 2 0.2 3.1 0.2h-6.2c1.1 0 2.1-0.1 3.1-0.2-13.2-1.5-22-12.8-20.1-26.4 0 0 14.6-56.5-21-107.5-35.6-51.1-112.2-42.3-112.2-42.3-13.8 0-25.2-10-26.7-23.4-0.1 1-0.2 2-0.2 3v-5.9c0 1 0.1 2 0.2 3 1.5-13.5 12.9-24 26.7-24.1 0 0 79.7-8 139.2 48 59.5 56 40.9 149.1 40.9 149.1z" fill="#000000" p-id="5010"></path><path d="M380.763261 628.154063a26.9 35.9 64.999 1 0 65.072369-30.345127 26.9 35.9 64.999 1 0-65.072369 30.345127Z" fill="#000000" p-id="5011"></path></svg>